<svg width="14" height="9" viewBox="0 0 14 9" fill="none" xmlns="http://www.w3.org/2000/svg">
<path d="M12.25 7.58333H8.75V5.83333H7.75833C7.11667 7.23333 5.65833 8.16667 4.08333 8.16667C1.80833 8.16667 0 6.35833 0 4.08333C0 1.80833 1.80833 0 4.08333 0C5.65833 0 7.11667 0.933333 7.75833 2.33333H14V5.83333H12.25V7.58333ZM9.91667 6.41667H11.0833V4.66667H12.8333V3.5H6.94167L6.825 3.09167C6.41667 1.925 5.30833 1.16667 4.08333 1.16667C2.45 1.16667 1.16667 2.45 1.16667 4.08333C1.16667 5.71667 2.45 7 4.08333 7C5.30833 7 6.41667 6.24167 6.825 5.075L6.94167 4.66667H9.91667V6.41667ZM4.08333 5.83333C3.09167 5.83333 2.33333 5.075 2.33333 4.08333C2.33333 3.09167 3.09167 2.33333 4.08333 2.33333C5.075 2.33333 5.83333 3.09167 5.83333 4.08333C5.83333 5.075 5.075 5.83333 4.08333 5.83333ZM4.08333 3.5C3.73333 3.5 3.5 3.73333 3.5 4.08333C3.5 4.43333 3.73333 4.66667 4.08333 4.66667C4.43333 4.66667 4.66667 4.43333 4.66667 4.08333C4.66667 3.73333 4.43333 3.5 4.08333 3.5Z" fill="#8B8B8B"/>
</svg>
